<!-- This Source Code Form is subject to the terms of the Mozilla Public
   - License, v. 2.0. If a copy of the MPL was not distributed with this
   - file, You can obtain one at http://mozilla.org/MPL/2.0/. -->
<svg xmlns="http://www.w3.org/2000/svg" width="16" height="16" viewBox="0 0 16 16" fill="context-fill">
  <path d="M7.97 2a4 6 0 00-3.7 3.82l-1.5-.77a.5.5 0 00-.58.09L.65 6.6a.5.5 0 10.7.73L2.63 6.1l1.44.74a4 6 0 00-.06.84l-1.24-.64a.5.5 0 00-.58.09L.65 8.6a.5.5 0 10.7.73L2.63 8.1l1.4.72a4 6 0 00.15.95l-1.41-.72a.5.5 0 00-.58.08L.65 10.6a.5.5 0 00.7.73l1.28-1.22 1.64.84a.5.5 0 00.27.05A4 6 0 008 14a4 6 0 003.46-2.99.5.5 0 00.27-.06l1.64-.84 1.29 1.22a.5.5 0 10.69-.73L13.8 9.14a.5.5 0 00-.57-.09l-1.41.72a4 6 0 00.14-.94l1.41-.72 1.29 1.22a.5.5 0 00.69-.73L13.8 7.14a.5.5 0 00-.57-.08l-1.24.63a4 6 0 00-.06-.85l1.44-.73 1.29 1.22a.5.5 0 00.69-.73L13.8 5.14a.5.5 0 00-.57-.08l-1.5.76A4 6 0 008 2a4 6 0 00-.03 0zm0 2A2 4 0 018 4a2 4 0 011.73 2H6.27a2 4 0 011.7-2zm-1.9 3h3.87A2 4 0 0110 8a2 4 0 01-2 4 2 4 0 01-2-4 2 4 0 01.06-1z"/>
</svg>