<!-- This Source Code Form is subject to the terms of the Mozilla Public
   - License, v. 2.0. If a copy of the MPL was not distributed with this
   - file, You can obtain one at http://mozilla.org/MPL/2.0/. -->
<svg xmlns="http://www.w3.org/2000/svg" width="16" height="16" viewBox="0 0 16 16">
  <path fill="context-fill" d="M11.33.5c-.75.06-1.37 1.02-.67 1.71l.8.79C9.38 3 8.22 4.18 6.83 5.19 5.43 6.2 4.23 7 3.46 7h-1.6c-1.12 0-1.18 2 0 2h1.6c.77 0 1.96.8 3.37 1.81C8.22 11.82 9.38 13 11.46 13l-.8.8c-.95.96.48 2.39 1.42 1.41l2.5-2.5a1 1 0 000-1.41l-2.5-2.5c-.95-.9-2.35.5-1.42 1.41l.8.79c-1.29 0-2.1-.82-3.46-1.81-.55-.4-1.11-.81-1.69-1.19.58-.38 1.14-.8 1.69-1.19C9.36 5.82 10.17 5 11.46 5l-.8.8c-.96.95.48 2.4 1.42 1.41l2.5-2.5a1 1 0 000-1.4L12.08.8a.98.98 0 00-.75-.3z"/>
</svg>