<!-- This Source Code Form is subject to the terms of the Mozilla Public
   - License, v. 2.0. If a copy of the MPL was not distributed with this
   - file, You can obtain one at http://mozilla.org/MPL/2.0/. -->
<svg xmlns="http://www.w3.org/2000/svg" width="16" height="16" viewBox="0 0 16 16" fill="context-fill">
  <path d="M12 3a3 3 0 00-3-3H3a3 3 0 00-3 3v6a3 3 0 003 3v-2a1 1 0 01-1-1V3a1 1 0 011-1h6a1 1 0 011 1z"/>
  <path d="M7 4a3 3 0 00-3 3v6a3 3 0 003 3h6a3 3 0 003-3V7a3 3 0 00-3-3zm0 2h6a1 1 0 011 1v6a1 1 0 01-1 1H7a1 1 0 01-1-1V7a1 1 0 011-1zm1.5 2c-.67 0-.67 1 0 1h3c.67 0 .67-1 0-1zm0 2c-.67 0-.67 1 0 1h3c.67 0 .67-1 0-1z"/>
  </svg>
