<!-- This Source Code Form is subject to the terms of the Mozilla Public
   - License, v. 2.0. If a copy of the MPL was not distributed with this
   - file, You can obtain one at http://mozilla.org/MPL/2.0/. -->
<svg xmlns="http://www.w3.org/2000/svg" width="16" height="16" viewBox="0 0 16 16">
  <path fill="context-fill" d="M14.86 3.2a1.33 1.33 0 01-1.22.8H13v1h1v8H2V5h8V4h-.64a1.36 1.36 0 01-1.33-1.11L6.58 1.54A2 2 0 005.22 1H2a2 2 0 00-2 2v10a2 2 0 002 2h12a2 2 0 002-2V5a2 2 0 00-1.14-1.8zM2 3h3.22l1.07 1H2zm7.85-.15L11 1.71V8.5a.5.5 0 001 0V1.7l1.15 1.15a.5.5 0 10.7-.7l-2-2a.5.5 0 00-.7 0l-2 2a.5.5 0 00.7.7z"/>
</svg>