<!-- This Source Code Form is subject to the terms of the Mozilla Public
   - License, v. 2.0. If a copy of the MPL was not distributed with this
   - file, You can obtain one at http://mozilla.org/MPL/2.0/. -->
<svg xmlns="http://www.w3.org/2000/svg" width="16" height="16" viewBox="0 0 16 16" fill="context-fill">
  <path d="M11 3H3C1.3 3 0 4.3 0 6v4c0 1.7 1.3 3 3 3h8v-2H3c-.6 0-1-.4-1-1V5.8c0 .1.1.1.2.1l4.5 4c.1.1.2.1.3.1.1 0 .2 0 .3-.1l4.5-4c.1 0 .1-.1.1-.2zm0 2c.1 0 .2 0 .3.1h-.1L7 8.9 2.8 5.1h-.1c.1-.1.2-.1.3-.1z"/>
  <path fill="#4fc825" d="M15.03 0H11c-1.33 0-1.33 2 0 2h1.62L9.79 4.8c-.96.95.48 2.38 1.42 1.4l2.82-2.79V5c0 1.33 2 1.33 2 0V1a1 1 0 00-1-1z"/>
  <path fill="#307cdb" d="M15.03 16.03H11c-1.33 0-1.33-2.01 0-2.01h1.62L9.79 11.2c-.97-.93.48-2.38 1.42-1.4l2.82 2.81V11c0-1.33 2-1.33 2 0v4.03a1 1 0 01-1 1z"/>
</svg>
