<!-- This Source Code Form is subject to the terms of the Mozilla Public
   - License, v. 2.0. If a copy of the MPL was not distributed with this
   - file, You can obtain one at http://mozilla.org/MPL/2.0/. -->
<svg xmlns="http://www.w3.org/2000/svg" height="32" width="32">
  <rect fill="#faebd1" y="10" x="2" height="12" width="16"/>
  <path fill="#b2917d" d="M4 9a3 3 0 00-3 3v8a3 3 0 003 3h12a3 3 0 003-3v-8c0-1.65-1.35-3-3-3zm12.29 2L10 15.92 3.7 11zM3 12.72l6.7 5.18c.09.1.2.1.3.1.11 0 .21 0 .3-.1l6.7-5.17V20c0 .55-.4.99-.95.99H4A.99.99 0 013 20z"/>
  <path fill="#4fc825" d="M29.04 2h-6c-1.34 0-1.34 2 0 2h3.59l-4.3 4.3c-.98.93.47 2.38 1.41 1.4l4.3-4.29v3.6c0 1.32 2 1.32 2 0V3a1 1 0 00-1-1z"/>
  <path fill="#307cdb" d="M29.03 30.03h-6c-1.33 0-1.33-2 0-2h3.59l-4.29-4.29c-.98-.95.47-2.39 1.41-1.42l4.29 4.29v-3.58c0-1.33 2-1.33 2 0v6a1 1 0 01-1 1z"/>
  <path fill="#f89200" d="M30.66 15.28l-4-4c-.95-.91-2.33.47-1.42 1.42l2.3 2.29h-4.59c-1.34 0-1.34 2 0 2h4.59l-2.3 2.29c-.97.95.47 2.39 1.42 1.42l4-4a1 1 0 000-1.42z"/>
</svg>
