<!-- This Source Code Form is subject to the terms of the Mozilla Public
   - License, v. 2.0. If a copy of the MPL was not distributed with this
   - file, You can obtain one at http://mozilla.org/MPL/2.0/. -->
<svg xmlns="http://www.w3.org/2000/svg" width="16" height="16" viewBox="0 0 16 16" fill="context-fill">
  <path d="M12 5H7.85L6.38 3.54A1.93 1.93 0 005.02 3H2a2 2 0 00-2 2v7c0 1.1.9 2 2 2h10a2 2 0 002-2V7a2 2 0 00-2-2zM5 5l1 1H2V5zm7 7H2V7h5.8v-.01c0-.05.1.01.15.01H12z"/>
  <path fill="#4fc825" d="M15.03 0H11.5c-1.33 0-1.33 2 0 2h1.12l-1.83 1.8c-.97.94.48 2.38 1.42 1.4l1.82-1.79V4.5c0 1.33 2 1.33 2 0V1a1 1 0 00-1-1z"/>
  <path fill="#f89200" d="M15.78 7.28l-1.82-2.24c-.95-.9-2.33.47-1.42 1.42l.46.53h-2.29c-1.34 0-1.34 2 0 2H13l-.46.55c-.97.95.47 2.39 1.42 1.42l1.82-2.27c.34-.42.34-.99 0-1.41z"/>
  <path fill="#307cdb" d="M15.03 16.03H11.5c-1.33 0-1.33-2.01 0-2.01h1.12l-1.83-1.82c-.97-.93.48-2.38 1.42-1.4l1.82 1.81V11.5c0-1.33 1.99-1.33 2 0v3.53a1 1 0 01-1 1z"/>
</svg>
