<!-- This Source Code Form is subject to the terms of the Mozilla Public
   - License, v. 2.0. If a copy of the MPL was not distributed with this
   - file, You can obtain one at http://mozilla.org/MPL/2.0/. -->
<svg xmlns="http://www.w3.org/2000/svg" width="16" height="16" viewBox="0 0 16 16" fill-opacity="context-fill-opacity">
  <path fill="context-fill" d="M12.72 6.86h-1.1a7.63 7.63 0 00-1.16-2l.66-1.02c.67-1.08-1.03-2.66-1.75-1.62L8.7 3.24a5.8 5.8 0 00-1.92-.84L6.5 1.14c-.33-1.52-2.32-1.52-1.99 0L4.8 2.4c-.6.15-1.13.43-1.57.84l-1.1-1.02C.94 1.14-.11 2.76 1.06 3.84l1.1 1.01c-.21.61-.31 1.3-.29 2H.78c-1.33 0-.83 2.3.5 2.3h1.1c.28.71.68 1.4 1.16 2H3.5l-.63.98c-.73 1.08 1.07 2.73 1.76 1.62l.64-.97s.02 0 0-.12c.65.51 1.3.79 1.96.94l.28 1.26c.33 1.52 2.31 1.52 1.98 0l-.27-1.26c.6-.15 1.12-.43 1.56-.83l1.11 1.01c1.15 1.05 2.19-.56 1.05-1.62l-1.1-1.02c.22-.6.32-1.28.3-2h1.09c1.33 0 .82-2.28-.5-2.28zM4.02 8c-.67-3.05 2.21-4.58 4.56-2.42 2.35 2.16 1.82 5.85-.83 5.85C6.1 11.43 4.42 9.89 4 8z"/>
</svg>